#!OML:ASF F:\VICON\USERDATA\INSTALL\rory3\rory3.ASF
:FULLY-SPECIFIED
:DEGREES
1155
root -2.015 18.1129 1.46081 36.2996 65.5768 -690.347
lowerback 19.1239 -0.984589 -1.38728
upperback 8.72687 -1.07375 -0.448539
thorax -1.29664 -0.366379 0.518284
lowerneck -13.9792 4.01727 -8.30321
upperneck 37.7532 11.8711 -4.29109
head 15.6538 3.64142 1.73143
rclavicle 0 6.36111e-015
rhumerus -28.9187 6.11722 -79.5471
rradius 47.8586
rwrist 16.0761
rhand -25.8488 3.22643
rfingers 7.12502
rthumb 0.691816 -26.7522
lclavicle 0 6.36111e-015
lhumerus -14.3009 -0.732745 80.2629
lradius 20.4675
lwrist -28.5506
lhand -26.9592 30.0717
lfingers 7.12502
lthumb -0.380726 60.0511
rfemur -31.3183 1.93931 9.93457
rtibia 27.6761
rfoot 0.274892 3.30161
rtoes 16.2445
lfemur -94.3791 16.5011 -16.8078
ltibia 109.623
lfoot 6.3382 -19.171
ltoes -20.2641
1156
root -1.99575 18.0913 1.41606 36.0395 64.9765 -690.458
lowerback 19.151 -1.01396 -1.60755
upperback 8.77334 -1.14658 -0.397146
thorax -1.2523 -0.409661 0.711433
lowerneck -14.0237 4.06788 -8.30941
upperneck 37.7161 11.989 -4.43364
head 15.6607 3.66773 1.69275
rclavicle -2.8625e-014 1.59028e-015
rhumerus -28.8501 6.23583 -79.4614
rradius 47.6754
rwrist 16.1786
rhand -25.6526 3.31567
rfingers 7.12502
rthumb 0.881263 -26.6623
lclavicle -2.8625e-014 1.59028e-015
lhumerus -14.7835 -1.42192 80.5477
lradius 20.5943
lwrist -28.7761
lhand -27.7508 32.4947
lfingers 7.12502
lthumb -1.1452 62.4713
rfemur -31.6709 2.07753 9.52516
rtibia 28.4218
rfoot 0.127097 3.76725
rtoes 16.1402
lfemur -93.9003 17.1806 -17.1339
ltibia 110.056
lfoot 7.25022 -19.7868
ltoes -19.1472
1157
root -1.97792 18.0673 1.37075 35.8299 64.3373 -690.613
lowerback 19.1108 -0.98261 -1.83076
upperback 8.80928 -1.14188 -0.332807
thorax -1.18582 -0.416217 0.90388
lowerneck -14.2515 4.06417 -8.43872
upperneck 37.8369 12.0538 -4.40686
head 15.7666 3.6607 1.74779
rclavicle 4.85035e-014 -2.22639e-014
rhumerus -28.7629 6.20882 -79.2819
rradius 47.5209
rwrist 16.1732
rhand -25.5104 3.46045
rfingers 7.12502
rthumb 1.01858 -26.5169
lclavicle 4.85035e-014 -2.22639e-014
lhumerus -15.0635 -1.14045 80.6631
lradius 20.4786
lwrist -29.4094
lhand -28.3284 31.4472
lfingers 7.12502
lthumb -1.70308 61.4201
rfemur -32.1358 2.3264 9.08338
rtibia 29.1439
rfoot -0.080294 4.05254
rtoes 16.3396
lfemur -93.5584 17.8752 -17.5626
ltibia 110.523
lfoot 8.04068 -20.5657
ltoes -19.0423
1158
root -1.95796 18.0409 1.32049 35.4988 63.7537 -690.885
lowerback 19.1167 -1.00869 -1.91932
upperback 8.84738 -1.18958 -0.286941
thorax -1.14296 -0.444307 1.01145
lowerneck -14.5094 4.06823 -8.5408
upperneck 37.9493 12.1527 -4.4472
head 15.8853 3.66062 1.77729
rclavicle 2.06736e-014 -1.43125e-014
rhumerus -28.6779 6.33438 -79.169
rradius 47.4135
rwrist 16.2029
rhand -25.7 3.30195
rfingers 7.12502
rthumb 0.835454 -26.6762
lclavicle 2.06736e-014 -1.43125e-014
lhumerus -15.3191 -0.933234 80.7661
lradius 20.3061
lwrist -30.0896
lhand -29.012 31.0806
lfingers 7.12502
lthumb -2.36331 61.0472
rfemur -32.5849 2.44917 8.75037
rtibia 29.8603
rfoot -0.180073 4.46446
rtoes 16.6663
lfemur -93.2744 18.5135 -18.0019
ltibia 111.034
lfoot 8.59263 -21.3648
ltoes -19.8083
1159
root -1.93704 18.0137 1.26687 35.0299 63.2386 -691.298
lowerback 19.1879 -1.06028 -1.82292
upperback 8.84957 -1.24379 -0.274178
thorax -1.17778 -0.469501 0.982072
lowerneck -14.6013 4.0649 -8.57438
upperneck 37.9442 12.1703 -4.48916
head 15.9079 3.65024 1.77119
rclavicle -4.13472e-014 9.54166e-015
rhumerus -28.718 6.40924 -79.1479
rradius 47.3697
rwrist 16.1733
rhand -25.7837 3.08837
rfingers 7.12502
rthumb 0.754635 -26.89
lclavicle -4.13472e-014 9.54166e-015
lhumerus -15.6369 -1.01915 80.8413
lradius 20.1224
lwrist -30.7568
lhand -29.464 31.7855
lfingers 7.12502
lthumb -2.7998 61.7468
rfemur -33.014 2.40586 8.56786
rtibia 30.5587
rfoot -0.195223 5.13242
rtoes 17.0426
lfemur -93.0076 19.1514 -18.3747
ltibia 111.589
lfoot 9.29064 -21.8324
ltoes -19.6432
1160
root -1.91792 17.987 1.2188 34.5972 62.7251 -691.636
lowerback 19.272 -1.09113 -1.76482
upperback 8.8612 -1.27693 -0.274041
thorax -1.20893 -0.484682 0.957113
lowerneck -14.6362 4.05865 -8.59053
upperneck 37.8952 12.1231 -4.44797
head 15.8849 3.63144 1.78226
rclavicle 8.0309e-014 -3.33958e-014
rhumerus -28.7672 6.46419 -79.1334
rradius 47.2875
rwrist 16.0218
rhand -25.8037 2.97673
rfingers 7.12502
rthumb 0.735318 -27.0017
lclavicle 8.0309e-014 -3.33958e-014
lhumerus -16.0497 -1.90065 81.0341
lradius 20.153
lwrist -30.6557
lhand -29.761 33.156
lfingers 7.12502
lthumb -3.08668 63.1134
rfemur -33.3962 2.52462 8.32897
rtibia 31.2428
rfoot -0.332471 5.58685
rtoes 17.3358
lfemur -92.6992 19.8292 -18.8199
ltibia 112.151
lfoot 9.86383 -22.2643
ltoes -19.721
